<?xml version="1.0" encoding="utf-8"?><svg width="auto" height="4320" style="overflow:visible " version="1.1" xmlns="http://www.w3.org/2000/svg"><rect x="20" y="20" width="200" height="40" style="fill:white;stroke:black;stroke-width:1" /><text x="30" y="30" font-size="10" style="fill:blue">xsl:stylesheet</text><text x="30" y="40" font-size="8" style="fill:black">version: 1.0</text><text x="30" y="50" font-size="8" style="fill:black">xmlns:xsl: http://www.w3.org/1999/XSL/Transform</text><rect x="240" y="20" width="200" height="40" style="fill:white;stroke:black;stroke-width:1" /><text x="250" y="30" font-size="10" style="fill:blue">xsl:output</text><path d="M220 40 C240 40 220 40 240 40" style="fill:transparent;stroke:black" /><text x="250" y="40" font-size="8" style="fill:black">method: html</text><text x="250" y="50" font-size="8" style="fill:black">version: 5.0</text><text x="250" y="60" font-size="8" style="fill:black">encoding: utf-8</text><text x="250" y="70" font-size="8" style="fill:black">indent: yes</text><rect x="240" y="70" width="200" height="40" style="fill:white;stroke:black;stroke-width:1" /><text x="250" y="80" font-size="10" style="fill:blue">xsl:template</text><path d="M220 40 C240 40 220 90 240 90" style="fill:transparent;stroke:black" /><text x="250" y="90" font-size="8" style="fill:black">match: rutas</text><rect x="460" y="70" width="200" height="40" style="fill:white;stroke:black;stroke-width:1" /><text x="470" y="80" font-size="10" style="fill:blue">html</text><path d="M440 90 C460 90 440 90 460 90" style="fill:transparent;stroke:black" /><rect x="680" y="70" width="200" height="40" style="fill:white;stroke:black;stroke-width:1" /><text x="690" y="80" font-size="10" style="fill:blue">head</text><path d="M660 90 C680 90 660 90 680 90" style="fill:transparent;stroke:black" /><rect x="900" y="70" width="200" height="40" style="fill:white;stroke:black;stroke-width:1" /><text x="910" y="80" font-size="10" style="fill:blue">title</text><path d="M880 90 C900 90 880 90 900 90" style="fill:transparent;stroke:black" /><rect x="966" y="70" width="137" height="40" style="fill:green;stroke:black;stroke-width:1" /><text x="976" y="80" font-size="8" style="fill:white">Ejercicio 2 Tarea 1</text><rect x="900" y="120" width="200" height="40" style="fill:white;stroke:black;stroke-width:1" /><text x="910" y="130" font-size="10" style="fill:blue">meta</text><path d="M880 90 C900 90 880 140 900 140" style="fill:transparent;stroke:black" /><text x="910" y="140" font-size="8" style="fill:black">name: description</text><text x="910" y="150" font-size="8" style="fill:black">content: Ejercicio 2 Tarea 1</text><rect x="900" y="170" width="200" height="40" style="fill:white;stroke:black;stroke-width:1" /><text x="910" y="180" font-size="10" style="fill:blue">meta</text><path d="M880 90 C900 90 880 190 900 190" style="fill:transparent;stroke:black" /><text x="910" y="190" font-size="8" style="fill:black">name: author</text><text x="910" y="200" font-size="8" style="fill:black">content: UO258318</text><rect x="680" y="270" width="200" height="40" style="fill:white;stroke:black;stroke-width:1" /><text x="690" y="280" font-size="10" style="fill:blue">body</text><path d="M660 90 C680 90 660 290 680 290" style="fill:transparent;stroke:black" /><rect x="900" y="270" width="200" height="40" style="fill:white;stroke:black;stroke-width:1" /><text x="910" y="280" font-size="10" style="fill:blue">header</text><path d="M880 290 C900 290 880 290 900 290" style="fill:transparent;stroke:black" /><rect x="1120" y="270" width="200" height="40" style="fill:white;stroke:black;stroke-width:1" /><text x="1130" y="280" font-size="10" style="fill:blue">h1</text><path d="M1100 290 C1120 290 1100 290 1120 290" style="fill:transparent;stroke:black" /><rect x="1186" y="270" width="137" height="40" style="fill:green;stroke:black;stroke-width:1" /><text x="1196" y="280" font-size="8" style="fill:white">Rutas por Japón</text><rect x="900" y="370" width="200" height="40" style="fill:white;stroke:black;stroke-width:1" /><text x="910" y="380" font-size="10" style="fill:blue">main</text><path d="M880 290 C900 290 880 390 900 390" style="fill:transparent;stroke:black" /><rect x="1120" y="370" width="200" height="40" style="fill:white;stroke:black;stroke-width:1" /><text x="1130" y="380" font-size="10" style="fill:blue">xsl:for-each</text><path d="M1100 390 C1120 390 1100 390 1120 390" style="fill:transparent;stroke:black" /><text x="1130" y="390" font-size="8" style="fill:black">select: ruta</text><rect x="1340" y="370" width="200" height="40" style="fill:white;stroke:black;stroke-width:1" /><text x="1350" y="380" font-size="10" style="fill:blue">section</text><path d="M1320 390 C1340 390 1320 390 1340 390" style="fill:transparent;stroke:black" /><text x="1350" y="390" font-size="8" style="fill:black">class: ruta</text><rect x="1560" y="370" width="200" height="40" style="fill:white;stroke:black;stroke-width:1" /><text x="1570" y="380" font-size="10" style="fill:blue">h2</text><path d="M1540 390 C1560 390 1540 390 1560 390" style="fill:transparent;stroke:black" /><rect x="1780" y="370" width="200" height="40" style="fill:white;stroke:black;stroke-width:1" /><text x="1790" y="380" font-size="10" style="fill:blue">xsl:value-of</text><path d="M1760 390 C1780 390 1760 390 1780 390" style="fill:transparent;stroke:black" /><text x="1790" y="390" font-size="8" style="fill:black">select: nombre</text><rect x="1560" y="470" width="200" height="40" style="fill:white;stroke:black;stroke-width:1" /><text x="1570" y="480" font-size="10" style="fill:blue">p</text><path d="M1540 390 C1560 390 1540 490 1560 490" style="fill:transparent;stroke:black" /><rect x="1626" y="470" width="137" height="40" style="fill:green;stroke:black;stroke-width:1" /><text x="1636" y="480" font-size="8" style="fill:white">
						Tipo de ruta: </text><rect x="1780" y="470" width="200" height="40" style="fill:white;stroke:black;stroke-width:1" /><text x="1790" y="480" font-size="10" style="fill:blue">xsl:value-of</text><path d="M1760 490 C1780 490 1760 490 1780 490" style="fill:transparent;stroke:black" /><text x="1790" y="490" font-size="8" style="fill:black">select: tipo</text><rect x="1560" y="570" width="200" height="40" style="fill:white;stroke:black;stroke-width:1" /><text x="1570" y="580" font-size="10" style="fill:blue">p</text><path d="M1540 390 C1560 390 1540 590 1560 590" style="fill:transparent;stroke:black" /><rect x="1626" y="570" width="137" height="40" style="fill:green;stroke:black;stroke-width:1" /><text x="1636" y="580" font-size="8" style="fill:white">
						Transporte: </text><rect x="1780" y="570" width="200" height="40" style="fill:white;stroke:black;stroke-width:1" /><text x="1790" y="580" font-size="10" style="fill:blue">xsl:value-of</text><path d="M1760 590 C1780 590 1760 590 1780 590" style="fill:transparent;stroke:black" /><text x="1790" y="590" font-size="8" style="fill:black">select: transporte</text><rect x="1560" y="670" width="200" height="40" style="fill:white;stroke:black;stroke-width:1" /><text x="1570" y="680" font-size="10" style="fill:blue">p</text><path d="M1540 390 C1560 390 1540 690 1560 690" style="fill:transparent;stroke:black" /><rect x="1626" y="670" width="137" height="40" style="fill:green;stroke:black;stroke-width:1" /><text x="1636" y="680" font-size="8" style="fill:white">
						Fecha de inicio de la ruta: </text><rect x="1780" y="670" width="200" height="40" style="fill:white;stroke:black;stroke-width:1" /><text x="1790" y="680" font-size="10" style="fill:blue">xsl:value-of</text><path d="M1760 690 C1780 690 1760 690 1780 690" style="fill:transparent;stroke:black" /><text x="1790" y="690" font-size="8" style="fill:black">select: fecha_inicio</text><rect x="1560" y="770" width="200" height="40" style="fill:white;stroke:black;stroke-width:1" /><text x="1570" y="780" font-size="10" style="fill:blue">p</text><path d="M1540 390 C1560 390 1540 790 1560 790" style="fill:transparent;stroke:black" /><rect x="1626" y="770" width="137" height="40" style="fill:green;stroke:black;stroke-width:1" /><text x="1636" y="780" font-size="8" style="fill:white">
						Hora de inicio de la ruta: </text><rect x="1780" y="770" width="200" height="40" style="fill:white;stroke:black;stroke-width:1" /><text x="1790" y="780" font-size="10" style="fill:blue">xsl:value-of</text><path d="M1760 790 C1780 790 1760 790 1780 790" style="fill:transparent;stroke:black" /><text x="1790" y="790" font-size="8" style="fill:black">select: hora_inicio</text><rect x="1560" y="870" width="200" height="40" style="fill:white;stroke:black;stroke-width:1" /><text x="1570" y="880" font-size="10" style="fill:blue">p</text><path d="M1540 390 C1560 390 1540 890 1560 890" style="fill:transparent;stroke:black" /><rect x="1626" y="870" width="137" height="40" style="fill:green;stroke:black;stroke-width:1" /><text x="1636" y="880" font-size="8" style="fill:white">
						Duración: </text><rect x="1780" y="870" width="200" height="40" style="fill:white;stroke:black;stroke-width:1" /><text x="1790" y="880" font-size="10" style="fill:blue">xsl:value-of</text><path d="M1760 890 C1780 890 1760 890 1780 890" style="fill:transparent;stroke:black" /><text x="1790" y="890" font-size="8" style="fill:black">select: duracion</text><rect x="1560" y="970" width="200" height="40" style="fill:white;stroke:black;stroke-width:1" /><text x="1570" y="980" font-size="10" style="fill:blue">p</text><path d="M1540 390 C1560 390 1540 990 1560 990" style="fill:transparent;stroke:black" /><rect x="1626" y="970" width="137" height="40" style="fill:green;stroke:black;stroke-width:1" /><text x="1636" y="980" font-size="8" style="fill:white">
						Agencia: </text><rect x="1780" y="970" width="200" height="40" style="fill:white;stroke:black;stroke-width:1" /><text x="1790" y="980" font-size="10" style="fill:blue">xsl:value-of</text><path d="M1760 990 C1780 990 1760 990 1780 990" style="fill:transparent;stroke:black" /><text x="1790" y="990" font-size="8" style="fill:black">select: agencia</text><rect x="1560" y="1070" width="200" height="40" style="fill:white;stroke:black;stroke-width:1" /><text x="1570" y="1080" font-size="10" style="fill:blue">p</text><path d="M1540 390 C1560 390 1540 1090 1560 1090" style="fill:transparent;stroke:black" /><rect x="1626" y="1070" width="137" height="40" style="fill:green;stroke:black;stroke-width:1" /><text x="1636" y="1080" font-size="8" style="fill:white">
						Descripción: </text><rect x="1780" y="1070" width="200" height="40" style="fill:white;stroke:black;stroke-width:1" /><text x="1790" y="1080" font-size="10" style="fill:blue">xsl:value-of</text><path d="M1760 1090 C1780 1090 1760 1090 1780 1090" style="fill:transparent;stroke:black" /><text x="1790" y="1090" font-size="8" style="fill:black">select: descripcion</text><rect x="1560" y="1170" width="200" height="40" style="fill:white;stroke:black;stroke-width:1" /><text x="1570" y="1180" font-size="10" style="fill:blue">p</text><path d="M1540 390 C1560 390 1540 1190 1560 1190" style="fill:transparent;stroke:black" /><rect x="1626" y="1170" width="137" height="40" style="fill:green;stroke:black;stroke-width:1" /><text x="1636" y="1180" font-size="8" style="fill:white">
						Personas adecuadas: </text><rect x="1780" y="1170" width="200" height="40" style="fill:white;stroke:black;stroke-width:1" /><text x="1790" y="1180" font-size="10" style="fill:blue">xsl:value-of</text><path d="M1760 1190 C1780 1190 1760 1190 1780 1190" style="fill:transparent;stroke:black" /><text x="1790" y="1190" font-size="8" style="fill:black">select: personas_adecuadas</text><rect x="1560" y="1270" width="200" height="40" style="fill:white;stroke:black;stroke-width:1" /><text x="1570" y="1280" font-size="10" style="fill:blue">p</text><path d="M1540 390 C1560 390 1540 1290 1560 1290" style="fill:transparent;stroke:black" /><rect x="1626" y="1270" width="137" height="40" style="fill:green;stroke:black;stroke-width:1" /><text x="1636" y="1280" font-size="8" style="fill:white">
						Lugar de inicio de la ruta: </text><rect x="1780" y="1270" width="200" height="40" style="fill:white;stroke:black;stroke-width:1" /><text x="1790" y="1280" font-size="10" style="fill:blue">xsl:value-of</text><path d="M1760 1290 C1780 1290 1760 1290 1780 1290" style="fill:transparent;stroke:black" /><text x="1790" y="1290" font-size="8" style="fill:black">select: lugar_inicio</text><rect x="1560" y="1370" width="200" height="40" style="fill:white;stroke:black;stroke-width:1" /><text x="1570" y="1380" font-size="10" style="fill:blue">p</text><path d="M1540 390 C1560 390 1540 1390 1560 1390" style="fill:transparent;stroke:black" /><rect x="1626" y="1370" width="137" height="40" style="fill:green;stroke:black;stroke-width:1" /><text x="1636" y="1380" font-size="8" style="fill:white">
						Dirección de inicio de la ruta: </text><rect x="1780" y="1370" width="200" height="40" style="fill:white;stroke:black;stroke-width:1" /><text x="1790" y="1380" font-size="10" style="fill:blue">xsl:value-of</text><path d="M1760 1390 C1780 1390 1760 1390 1780 1390" style="fill:transparent;stroke:black" /><text x="1790" y="1390" font-size="8" style="fill:black">select: direccion_inicio</text><rect x="1560" y="1470" width="200" height="40" style="fill:white;stroke:black;stroke-width:1" /><text x="1570" y="1480" font-size="10" style="fill:blue">p</text><path d="M1540 390 C1560 390 1540 1490 1560 1490" style="fill:transparent;stroke:black" /><rect x="1626" y="1470" width="137" height="40" style="fill:green;stroke:black;stroke-width:1" /><text x="1636" y="1480" font-size="8" style="fill:white">
						Coordenadas:						
					</text><rect x="1560" y="1520" width="200" height="40" style="fill:white;stroke:black;stroke-width:1" /><text x="1570" y="1530" font-size="10" style="fill:blue">ul</text><path d="M1540 390 C1560 390 1540 1540 1560 1540" style="fill:transparent;stroke:black" /><rect x="1780" y="1520" width="200" height="40" style="fill:white;stroke:black;stroke-width:1" /><text x="1790" y="1530" font-size="10" style="fill:blue">li</text><path d="M1760 1540 C1780 1540 1760 1540 1780 1540" style="fill:transparent;stroke:black" /><rect x="1846" y="1520" width="137" height="40" style="fill:green;stroke:black;stroke-width:1" /><text x="1856" y="1530" font-size="8" style="fill:white">Longitud: </text><rect x="2000" y="1520" width="200" height="40" style="fill:white;stroke:black;stroke-width:1" /><text x="2010" y="1530" font-size="10" style="fill:blue">xsl:value-of</text><path d="M1980 1540 C2000 1540 1980 1540 2000 1540" style="fill:transparent;stroke:black" /><text x="2010" y="1540" font-size="8" style="fill:black">select: coordenadas//@longitud</text><rect x="1780" y="1620" width="200" height="40" style="fill:white;stroke:black;stroke-width:1" /><text x="1790" y="1630" font-size="10" style="fill:blue">li</text><path d="M1760 1540 C1780 1540 1760 1640 1780 1640" style="fill:transparent;stroke:black" /><rect x="1846" y="1620" width="137" height="40" style="fill:green;stroke:black;stroke-width:1" /><text x="1856" y="1630" font-size="8" style="fill:white">Latitud: </text><rect x="2000" y="1620" width="200" height="40" style="fill:white;stroke:black;stroke-width:1" /><text x="2010" y="1630" font-size="10" style="fill:blue">xsl:value-of</text><path d="M1980 1640 C2000 1640 1980 1640 2000 1640" style="fill:transparent;stroke:black" /><text x="2010" y="1640" font-size="8" style="fill:black">select: coordenadas//@latitud</text><rect x="1780" y="1720" width="200" height="40" style="fill:white;stroke:black;stroke-width:1" /><text x="1790" y="1730" font-size="10" style="fill:blue">li</text><path d="M1760 1540 C1780 1540 1760 1740 1780 1740" style="fill:transparent;stroke:black" /><rect x="1846" y="1720" width="137" height="40" style="fill:green;stroke:black;stroke-width:1" /><text x="1856" y="1730" font-size="8" style="fill:white">Altitud: </text><rect x="2000" y="1720" width="200" height="40" style="fill:white;stroke:black;stroke-width:1" /><text x="2010" y="1730" font-size="10" style="fill:blue">xsl:value-of</text><path d="M1980 1740 C2000 1740 1980 1740 2000 1740" style="fill:transparent;stroke:black" /><text x="2010" y="1740" font-size="8" style="fill:black">select: coordenadas//@altitud</text><rect x="1560" y="1870" width="200" height="40" style="fill:white;stroke:black;stroke-width:1" /><text x="1570" y="1880" font-size="10" style="fill:blue">p</text><path d="M1540 390 C1560 390 1540 1890 1560 1890" style="fill:transparent;stroke:black" /><rect x="1626" y="1870" width="137" height="40" style="fill:green;stroke:black;stroke-width:1" /><text x="1636" y="1880" font-size="8" style="fill:white">
						Referencias:
					</text><rect x="1560" y="1920" width="200" height="40" style="fill:white;stroke:black;stroke-width:1" /><text x="1570" y="1930" font-size="10" style="fill:blue">ul</text><path d="M1540 390 C1560 390 1540 1940 1560 1940" style="fill:transparent;stroke:black" /><text x="1570" y="1940" font-size="8" style="fill:black">class: referencias</text><rect x="1780" y="1920" width="200" height="40" style="fill:white;stroke:black;stroke-width:1" /><text x="1790" y="1930" font-size="10" style="fill:blue">xsl:for-each</text><path d="M1760 1940 C1780 1940 1760 1940 1780 1940" style="fill:transparent;stroke:black" /><text x="1790" y="1940" font-size="8" style="fill:black">select: referencias//referencia</text><rect x="2000" y="1920" width="200" height="40" style="fill:white;stroke:black;stroke-width:1" /><text x="2010" y="1930" font-size="10" style="fill:blue">li</text><path d="M1980 1940 C2000 1940 1980 1940 2000 1940" style="fill:transparent;stroke:black" /><rect x="2220" y="1920" width="200" height="40" style="fill:white;stroke:black;stroke-width:1" /><text x="2230" y="1930" font-size="10" style="fill:blue">a</text><path d="M2200 1940 C2220 1940 2200 1940 2220 1940" style="fill:transparent;stroke:black" /><rect x="2440" y="1920" width="200" height="40" style="fill:white;stroke:black;stroke-width:1" /><text x="2450" y="1930" font-size="10" style="fill:blue">xsl:attribute</text><path d="M2420 1940 C2440 1940 2420 1940 2440 1940" style="fill:transparent;stroke:black" /><text x="2450" y="1940" font-size="8" style="fill:black">name: href</text><rect x="2660" y="1920" width="200" height="40" style="fill:white;stroke:black;stroke-width:1" /><text x="2670" y="1930" font-size="10" style="fill:blue">xsl:value-of</text><path d="M2640 1940 C2660 1940 2640 1940 2660 1940" style="fill:transparent;stroke:black" /><text x="2670" y="1940" font-size="8" style="fill:black">select: @url</text><rect x="2440" y="2020" width="200" height="40" style="fill:white;stroke:black;stroke-width:1" /><text x="2450" y="2030" font-size="10" style="fill:blue">xsl:value-of</text><path d="M2420 1940 C2440 1940 2420 2040 2440 2040" style="fill:transparent;stroke:black" /><text x="2450" y="2040" font-size="8" style="fill:black">select: .</text><rect x="1560" y="2270" width="200" height="40" style="fill:white;stroke:black;stroke-width:1" /><text x="1570" y="2280" font-size="10" style="fill:blue">p</text><path d="M1540 390 C1560 390 1540 2290 1560 2290" style="fill:transparent;stroke:black" /><rect x="1626" y="2270" width="137" height="40" style="fill:green;stroke:black;stroke-width:1" /><text x="1636" y="2280" font-size="8" style="fill:white">
						Recomendación: </text><rect x="1780" y="2270" width="200" height="40" style="fill:white;stroke:black;stroke-width:1" /><text x="1790" y="2280" font-size="10" style="fill:blue">xsl:value-of</text><path d="M1760 2290 C1780 2290 1760 2290 1780 2290" style="fill:transparent;stroke:black" /><text x="1790" y="2290" font-size="8" style="fill:black">select: recomendacion</text><rect x="1560" y="2370" width="200" height="40" style="fill:white;stroke:black;stroke-width:1" /><text x="1570" y="2380" font-size="10" style="fill:blue">xsl:for-each</text><path d="M1540 390 C1560 390 1540 2390 1560 2390" style="fill:transparent;stroke:black" /><text x="1570" y="2390" font-size="8" style="fill:black">select: hitos//hito</text><rect x="1780" y="2370" width="200" height="40" style="fill:white;stroke:black;stroke-width:1" /><text x="1790" y="2380" font-size="10" style="fill:blue">section</text><path d="M1760 2390 C1780 2390 1760 2390 1780 2390" style="fill:transparent;stroke:black" /><text x="1790" y="2390" font-size="8" style="fill:black">class: hito</text><rect x="2000" y="2370" width="200" height="40" style="fill:white;stroke:black;stroke-width:1" /><text x="2010" y="2380" font-size="10" style="fill:blue">h3</text><path d="M1980 2390 C2000 2390 1980 2390 2000 2390" style="fill:transparent;stroke:black" /><rect x="2220" y="2370" width="200" height="40" style="fill:white;stroke:black;stroke-width:1" /><text x="2230" y="2380" font-size="10" style="fill:blue">xsl:value-of</text><path d="M2200 2390 C2220 2390 2200 2390 2220 2390" style="fill:transparent;stroke:black" /><text x="2230" y="2390" font-size="8" style="fill:black">select: nombre</text><rect x="2000" y="2470" width="200" height="40" style="fill:white;stroke:black;stroke-width:1" /><text x="2010" y="2480" font-size="10" style="fill:blue">p</text><path d="M1980 2390 C2000 2390 1980 2490 2000 2490" style="fill:transparent;stroke:black" /><rect x="2066" y="2470" width="137" height="40" style="fill:green;stroke:black;stroke-width:1" /><text x="2076" y="2480" font-size="8" style="fill:white">
								Descripción: </text><rect x="2220" y="2470" width="200" height="40" style="fill:white;stroke:black;stroke-width:1" /><text x="2230" y="2480" font-size="10" style="fill:blue">xsl:value-of</text><path d="M2200 2490 C2220 2490 2200 2490 2220 2490" style="fill:transparent;stroke:black" /><text x="2230" y="2490" font-size="8" style="fill:black">select: descripcion</text><rect x="2000" y="2570" width="200" height="40" style="fill:white;stroke:black;stroke-width:1" /><text x="2010" y="2580" font-size="10" style="fill:blue">p</text><path d="M1980 2390 C2000 2390 1980 2590 2000 2590" style="fill:transparent;stroke:black" /><rect x="2066" y="2570" width="137" height="40" style="fill:green;stroke:black;stroke-width:1" /><text x="2076" y="2580" font-size="8" style="fill:white">
								Coordenadas:						
							</text><rect x="2000" y="2620" width="200" height="40" style="fill:white;stroke:black;stroke-width:1" /><text x="2010" y="2630" font-size="10" style="fill:blue">ul</text><path d="M1980 2390 C2000 2390 1980 2640 2000 2640" style="fill:transparent;stroke:black" /><rect x="2220" y="2620" width="200" height="40" style="fill:white;stroke:black;stroke-width:1" /><text x="2230" y="2630" font-size="10" style="fill:blue">li</text><path d="M2200 2640 C2220 2640 2200 2640 2220 2640" style="fill:transparent;stroke:black" /><rect x="2286" y="2620" width="137" height="40" style="fill:green;stroke:black;stroke-width:1" /><text x="2296" y="2630" font-size="8" style="fill:white">Longitud: </text><rect x="2440" y="2620" width="200" height="40" style="fill:white;stroke:black;stroke-width:1" /><text x="2450" y="2630" font-size="10" style="fill:blue">xsl:value-of</text><path d="M2420 2640 C2440 2640 2420 2640 2440 2640" style="fill:transparent;stroke:black" /><text x="2450" y="2640" font-size="8" style="fill:black">select: coordenadas//@longitud</text><rect x="2220" y="2720" width="200" height="40" style="fill:white;stroke:black;stroke-width:1" /><text x="2230" y="2730" font-size="10" style="fill:blue">li</text><path d="M2200 2640 C2220 2640 2200 2740 2220 2740" style="fill:transparent;stroke:black" /><rect x="2286" y="2720" width="137" height="40" style="fill:green;stroke:black;stroke-width:1" /><text x="2296" y="2730" font-size="8" style="fill:white">Latitud: </text><rect x="2440" y="2720" width="200" height="40" style="fill:white;stroke:black;stroke-width:1" /><text x="2450" y="2730" font-size="10" style="fill:blue">xsl:value-of</text><path d="M2420 2740 C2440 2740 2420 2740 2440 2740" style="fill:transparent;stroke:black" /><text x="2450" y="2740" font-size="8" style="fill:black">select: coordenadas//@latitud</text><rect x="2220" y="2820" width="200" height="40" style="fill:white;stroke:black;stroke-width:1" /><text x="2230" y="2830" font-size="10" style="fill:blue">li</text><path d="M2200 2640 C2220 2640 2200 2840 2220 2840" style="fill:transparent;stroke:black" /><rect x="2286" y="2820" width="137" height="40" style="fill:green;stroke:black;stroke-width:1" /><text x="2296" y="2830" font-size="8" style="fill:white">Altitud: </text><rect x="2440" y="2820" width="200" height="40" style="fill:white;stroke:black;stroke-width:1" /><text x="2450" y="2830" font-size="10" style="fill:blue">xsl:value-of</text><path d="M2420 2840 C2440 2840 2420 2840 2440 2840" style="fill:transparent;stroke:black" /><text x="2450" y="2840" font-size="8" style="fill:black">select: coordenadas//@altitud</text><rect x="2000" y="2970" width="200" height="40" style="fill:white;stroke:black;stroke-width:1" /><text x="2010" y="2980" font-size="10" style="fill:blue">p</text><path d="M1980 2390 C2000 2390 1980 2990 2000 2990" style="fill:transparent;stroke:black" /><rect x="2066" y="2970" width="137" height="40" style="fill:green;stroke:black;stroke-width:1" /><text x="2076" y="2980" font-size="8" style="fill:white">
								Distancia respecto al hito anterior: </text><rect x="2220" y="2970" width="200" height="40" style="fill:white;stroke:black;stroke-width:1" /><text x="2230" y="2980" font-size="10" style="fill:blue">xsl:value-of</text><path d="M2200 2990 C2220 2990 2200 2990 2220 2990" style="fill:transparent;stroke:black" /><text x="2230" y="2990" font-size="8" style="fill:black">select: distanciaHitoAnterior</text><rect x="2000" y="3070" width="200" height="40" style="fill:white;stroke:black;stroke-width:1" /><text x="2010" y="3080" font-size="10" style="fill:blue">p</text><path d="M1980 2390 C2000 2390 1980 3090 2000 3090" style="fill:transparent;stroke:black" /><rect x="2066" y="3070" width="137" height="40" style="fill:green;stroke:black;stroke-width:1" /><text x="2076" y="3080" font-size="8" style="fill:white">
								Fotografías: 
							</text><rect x="2000" y="3120" width="200" height="40" style="fill:white;stroke:black;stroke-width:1" /><text x="2010" y="3130" font-size="10" style="fill:blue">ul</text><path d="M1980 2390 C2000 2390 1980 3140 2000 3140" style="fill:transparent;stroke:black" /><text x="2010" y="3140" font-size="8" style="fill:black">class: fotografias</text><rect x="2220" y="3120" width="200" height="40" style="fill:white;stroke:black;stroke-width:1" /><text x="2230" y="3130" font-size="10" style="fill:blue">xsl:for-each</text><path d="M2200 3140 C2220 3140 2200 3140 2220 3140" style="fill:transparent;stroke:black" /><text x="2230" y="3140" font-size="8" style="fill:black">select: fotografias//fotografia</text><rect x="2440" y="3120" width="200" height="40" style="fill:white;stroke:black;stroke-width:1" /><text x="2450" y="3130" font-size="10" style="fill:blue">li</text><path d="M2420 3140 C2440 3140 2420 3140 2440 3140" style="fill:transparent;stroke:black" /><rect x="2660" y="3120" width="200" height="40" style="fill:white;stroke:black;stroke-width:1" /><text x="2670" y="3130" font-size="10" style="fill:blue">img</text><path d="M2640 3140 C2660 3140 2640 3140 2660 3140" style="fill:transparent;stroke:black" /><rect x="2880" y="3120" width="200" height="40" style="fill:white;stroke:black;stroke-width:1" /><text x="2890" y="3130" font-size="10" style="fill:blue">xsl:attribute</text><path d="M2860 3140 C2880 3140 2860 3140 2880 3140" style="fill:transparent;stroke:black" /><text x="2890" y="3140" font-size="8" style="fill:black">name: src</text><rect x="3100" y="3120" width="200" height="40" style="fill:white;stroke:black;stroke-width:1" /><text x="3110" y="3130" font-size="10" style="fill:blue">xsl:value-of</text><path d="M3080 3140 C3100 3140 3080 3140 3100 3140" style="fill:transparent;stroke:black" /><text x="3110" y="3140" font-size="8" style="fill:black">select: @src</text><rect x="2880" y="3220" width="200" height="40" style="fill:white;stroke:black;stroke-width:1" /><text x="2890" y="3230" font-size="10" style="fill:blue">xsl:value-of</text><path d="M2860 3140 C2880 3140 2860 3240 2880 3240" style="fill:transparent;stroke:black" /><text x="2890" y="3240" font-size="8" style="fill:black">select: @titulo</text><rect x="2000" y="3470" width="200" height="40" style="fill:white;stroke:black;stroke-width:1" /><text x="2010" y="3480" font-size="10" style="fill:blue">p</text><path d="M1980 2390 C2000 2390 1980 3490 2000 3490" style="fill:transparent;stroke:black" /><rect x="2066" y="3470" width="137" height="40" style="fill:green;stroke:black;stroke-width:1" /><text x="2076" y="3480" font-size="8" style="fill:white">
								Vídeos: 
							</text><rect x="2000" y="3520" width="200" height="40" style="fill:white;stroke:black;stroke-width:1" /><text x="2010" y="3530" font-size="10" style="fill:blue">ul</text><path d="M1980 2390 C2000 2390 1980 3540 2000 3540" style="fill:transparent;stroke:black" /><text x="2010" y="3540" font-size="8" style="fill:black">class: videos</text><rect x="2220" y="3520" width="200" height="40" style="fill:white;stroke:black;stroke-width:1" /><text x="2230" y="3530" font-size="10" style="fill:blue">xsl:for-each</text><path d="M2200 3540 C2220 3540 2200 3540 2220 3540" style="fill:transparent;stroke:black" /><text x="2230" y="3540" font-size="8" style="fill:black">select: videos//video</text><rect x="2440" y="3520" width="200" height="40" style="fill:white;stroke:black;stroke-width:1" /><text x="2450" y="3530" font-size="10" style="fill:blue">li</text><path d="M2420 3540 C2440 3540 2420 3540 2440 3540" style="fill:transparent;stroke:black" /><rect x="2660" y="3520" width="200" height="40" style="fill:white;stroke:black;stroke-width:1" /><text x="2670" y="3530" font-size="10" style="fill:blue">a</text><path d="M2640 3540 C2660 3540 2640 3540 2660 3540" style="fill:transparent;stroke:black" /><rect x="2880" y="3520" width="200" height="40" style="fill:white;stroke:black;stroke-width:1" /><text x="2890" y="3530" font-size="10" style="fill:blue">xsl:attribute</text><path d="M2860 3540 C2880 3540 2860 3540 2880 3540" style="fill:transparent;stroke:black" /><text x="2890" y="3540" font-size="8" style="fill:black">name: href</text><rect x="3100" y="3520" width="200" height="40" style="fill:white;stroke:black;stroke-width:1" /><text x="3110" y="3530" font-size="10" style="fill:blue">xsl:value-of</text><path d="M3080 3540 C3100 3540 3080 3540 3100 3540" style="fill:transparent;stroke:black" /><text x="3110" y="3540" font-size="8" style="fill:black">select: @src</text><rect x="2880" y="3620" width="200" height="40" style="fill:white;stroke:black;stroke-width:1" /><text x="2890" y="3630" font-size="10" style="fill:blue">xsl:value-of</text><path d="M2860 3540 C2880 3540 2860 3640 2880 3640" style="fill:transparent;stroke:black" /><text x="2890" y="3640" font-size="8" style="fill:black">select: @titulo</text></svg>