<?xml version="1.0" encoding="utf-8"?><svg width="auto" height="3120" style="overflow:visible " version="1.1" xmlns="http://www.w3.org/2000/svg"><rect x="20" y="20" width="200" height="40" style="fill:white;stroke:black;stroke-width:1" /><text x="30" y="30" font-size="10" style="fill:blue">xs:schema</text><text x="30" y="40" font-size="8" style="fill:black">attributeFormDefault: unqualified</text><text x="30" y="50" font-size="8" style="fill:black">elementFormDefault: qualified</text><text x="30" y="60" font-size="8" style="fill:black">xmlns:xs: http://www.w3.org/2001/XMLSchema</text><rect x="240" y="20" width="200" height="40" style="fill:white;stroke:black;stroke-width:1" /><text x="250" y="30" font-size="10" style="fill:blue">xs:element</text><path d="M220 40 C240 40 220 40 240 40" style="fill:transparent;stroke:black" /><text x="250" y="40" font-size="8" style="fill:black">name: rutas</text><text x="250" y="50" font-size="8" style="fill:black">type: rutasType</text><rect x="240" y="70" width="200" height="40" style="fill:white;stroke:black;stroke-width:1" /><text x="250" y="80" font-size="10" style="fill:blue">xs:complexType</text><path d="M220 40 C240 40 220 90 240 90" style="fill:transparent;stroke:black" /><text x="250" y="90" font-size="8" style="fill:black">name: coordenadasType</text><rect x="460" y="70" width="200" height="40" style="fill:white;stroke:black;stroke-width:1" /><text x="470" y="80" font-size="10" style="fill:blue">xs:simpleContent</text><path d="M440 90 C460 90 440 90 460 90" style="fill:transparent;stroke:black" /><rect x="680" y="70" width="200" height="40" style="fill:white;stroke:black;stroke-width:1" /><text x="690" y="80" font-size="10" style="fill:blue">xs:extension</text><path d="M660 90 C680 90 660 90 680 90" style="fill:transparent;stroke:black" /><text x="690" y="90" font-size="8" style="fill:black">base: xs:string</text><rect x="900" y="70" width="200" height="40" style="fill:white;stroke:black;stroke-width:1" /><text x="910" y="80" font-size="10" style="fill:blue">xs:attribute</text><path d="M880 90 C900 90 880 90 900 90" style="fill:transparent;stroke:black" /><text x="910" y="90" font-size="8" style="fill:black">type: xs:double</text><text x="910" y="100" font-size="8" style="fill:black">name: longitud</text><text x="910" y="110" font-size="8" style="fill:black">use: optional</text><rect x="900" y="120" width="200" height="40" style="fill:white;stroke:black;stroke-width:1" /><text x="910" y="130" font-size="10" style="fill:blue">xs:attribute</text><path d="M880 90 C900 90 880 140 900 140" style="fill:transparent;stroke:black" /><text x="910" y="140" font-size="8" style="fill:black">type: xs:double</text><text x="910" y="150" font-size="8" style="fill:black">name: latitud</text><text x="910" y="160" font-size="8" style="fill:black">use: optional</text><rect x="900" y="170" width="200" height="40" style="fill:white;stroke:black;stroke-width:1" /><text x="910" y="180" font-size="10" style="fill:blue">xs:attribute</text><path d="M880 90 C900 90 880 190 900 190" style="fill:transparent;stroke:black" /><text x="910" y="190" font-size="8" style="fill:black">type: xs:double</text><text x="910" y="200" font-size="8" style="fill:black">name: altitud</text><text x="910" y="210" font-size="8" style="fill:black">use: optional</text><rect x="240" y="370" width="200" height="40" style="fill:white;stroke:black;stroke-width:1" /><text x="250" y="380" font-size="10" style="fill:blue">xs:complexType</text><path d="M220 40 C240 40 220 390 240 390" style="fill:transparent;stroke:black" /><text x="250" y="390" font-size="8" style="fill:black">name: referenciaType</text><rect x="460" y="370" width="200" height="40" style="fill:white;stroke:black;stroke-width:1" /><text x="470" y="380" font-size="10" style="fill:blue">xs:simpleContent</text><path d="M440 390 C460 390 440 390 460 390" style="fill:transparent;stroke:black" /><rect x="680" y="370" width="200" height="40" style="fill:white;stroke:black;stroke-width:1" /><text x="690" y="380" font-size="10" style="fill:blue">xs:extension</text><path d="M660 390 C680 390 660 390 680 390" style="fill:transparent;stroke:black" /><text x="690" y="390" font-size="8" style="fill:black">base: xs:string</text><rect x="900" y="370" width="200" height="40" style="fill:white;stroke:black;stroke-width:1" /><text x="910" y="380" font-size="10" style="fill:blue">xs:attribute</text><path d="M880 390 C900 390 880 390 900 390" style="fill:transparent;stroke:black" /><text x="910" y="390" font-size="8" style="fill:black">type: xs:string</text><text x="910" y="400" font-size="8" style="fill:black">name: url</text><text x="910" y="410" font-size="8" style="fill:black">use: optional</text><rect x="240" y="570" width="200" height="40" style="fill:white;stroke:black;stroke-width:1" /><text x="250" y="580" font-size="10" style="fill:blue">xs:complexType</text><path d="M220 40 C240 40 220 590 240 590" style="fill:transparent;stroke:black" /><text x="250" y="590" font-size="8" style="fill:black">name: referenciasType</text><rect x="460" y="570" width="200" height="40" style="fill:white;stroke:black;stroke-width:1" /><text x="470" y="580" font-size="10" style="fill:blue">xs:sequence</text><path d="M440 590 C460 590 440 590 460 590" style="fill:transparent;stroke:black" /><rect x="680" y="570" width="200" height="40" style="fill:white;stroke:black;stroke-width:1" /><text x="690" y="580" font-size="10" style="fill:blue">xs:element</text><path d="M660 590 C680 590 660 590 680 590" style="fill:transparent;stroke:black" /><text x="690" y="590" font-size="8" style="fill:black">type: referenciaType</text><text x="690" y="600" font-size="8" style="fill:black">name: referencia</text><text x="690" y="610" font-size="8" style="fill:black">maxOccurs: unbounded</text><text x="690" y="620" font-size="8" style="fill:black">minOccurs: 0</text><rect x="240" y="720" width="200" height="40" style="fill:white;stroke:black;stroke-width:1" /><text x="250" y="730" font-size="10" style="fill:blue">xs:complexType</text><path d="M220 40 C240 40 220 740 240 740" style="fill:transparent;stroke:black" /><text x="250" y="740" font-size="8" style="fill:black">name: fotografiaType</text><rect x="460" y="720" width="200" height="40" style="fill:white;stroke:black;stroke-width:1" /><text x="470" y="730" font-size="10" style="fill:blue">xs:simpleContent</text><path d="M440 740 C460 740 440 740 460 740" style="fill:transparent;stroke:black" /><rect x="680" y="720" width="200" height="40" style="fill:white;stroke:black;stroke-width:1" /><text x="690" y="730" font-size="10" style="fill:blue">xs:extension</text><path d="M660 740 C680 740 660 740 680 740" style="fill:transparent;stroke:black" /><text x="690" y="740" font-size="8" style="fill:black">base: xs:string</text><rect x="900" y="720" width="200" height="40" style="fill:white;stroke:black;stroke-width:1" /><text x="910" y="730" font-size="10" style="fill:blue">xs:attribute</text><path d="M880 740 C900 740 880 740 900 740" style="fill:transparent;stroke:black" /><text x="910" y="740" font-size="8" style="fill:black">type: xs:string</text><text x="910" y="750" font-size="8" style="fill:black">name: src</text><text x="910" y="760" font-size="8" style="fill:black">use: optional</text><rect x="900" y="770" width="200" height="40" style="fill:white;stroke:black;stroke-width:1" /><text x="910" y="780" font-size="10" style="fill:blue">xs:attribute</text><path d="M880 740 C900 740 880 790 900 790" style="fill:transparent;stroke:black" /><text x="910" y="790" font-size="8" style="fill:black">type: xs:string</text><text x="910" y="800" font-size="8" style="fill:black">name: titulo</text><text x="910" y="810" font-size="8" style="fill:black">use: optional</text><rect x="240" y="970" width="200" height="40" style="fill:white;stroke:black;stroke-width:1" /><text x="250" y="980" font-size="10" style="fill:blue">xs:complexType</text><path d="M220 40 C240 40 220 990 240 990" style="fill:transparent;stroke:black" /><text x="250" y="990" font-size="8" style="fill:black">name: fotografiasType</text><rect x="460" y="970" width="200" height="40" style="fill:white;stroke:black;stroke-width:1" /><text x="470" y="980" font-size="10" style="fill:blue">xs:sequence</text><path d="M440 990 C460 990 440 990 460 990" style="fill:transparent;stroke:black" /><rect x="680" y="970" width="200" height="40" style="fill:white;stroke:black;stroke-width:1" /><text x="690" y="980" font-size="10" style="fill:blue">xs:element</text><path d="M660 990 C680 990 660 990 680 990" style="fill:transparent;stroke:black" /><text x="690" y="990" font-size="8" style="fill:black">type: fotografiaType</text><text x="690" y="1000" font-size="8" style="fill:black">name: fotografia</text><text x="690" y="1010" font-size="8" style="fill:black">maxOccurs: unbounded</text><text x="690" y="1020" font-size="8" style="fill:black">minOccurs: 0</text><rect x="240" y="1120" width="200" height="40" style="fill:white;stroke:black;stroke-width:1" /><text x="250" y="1130" font-size="10" style="fill:blue">xs:complexType</text><path d="M220 40 C240 40 220 1140 240 1140" style="fill:transparent;stroke:black" /><text x="250" y="1140" font-size="8" style="fill:black">name: hitoType</text><rect x="460" y="1120" width="200" height="40" style="fill:white;stroke:black;stroke-width:1" /><text x="470" y="1130" font-size="10" style="fill:blue">xs:sequence</text><path d="M440 1140 C460 1140 440 1140 460 1140" style="fill:transparent;stroke:black" /><rect x="680" y="1120" width="200" height="40" style="fill:white;stroke:black;stroke-width:1" /><text x="690" y="1130" font-size="10" style="fill:blue">xs:element</text><path d="M660 1140 C680 1140 660 1140 680 1140" style="fill:transparent;stroke:black" /><text x="690" y="1140" font-size="8" style="fill:black">type: xs:string</text><text x="690" y="1150" font-size="8" style="fill:black">name: nombre</text><rect x="680" y="1170" width="200" height="40" style="fill:white;stroke:black;stroke-width:1" /><text x="690" y="1180" font-size="10" style="fill:blue">xs:element</text><path d="M660 1140 C680 1140 660 1190 680 1190" style="fill:transparent;stroke:black" /><text x="690" y="1190" font-size="8" style="fill:black">type: xs:string</text><text x="690" y="1200" font-size="8" style="fill:black">name: descripcion</text><rect x="680" y="1220" width="200" height="40" style="fill:white;stroke:black;stroke-width:1" /><text x="690" y="1230" font-size="10" style="fill:blue">xs:element</text><path d="M660 1140 C680 1140 660 1240 680 1240" style="fill:transparent;stroke:black" /><text x="690" y="1240" font-size="8" style="fill:black">type: coordenadasType</text><text x="690" y="1250" font-size="8" style="fill:black">name: coordenadas</text><rect x="680" y="1270" width="200" height="40" style="fill:white;stroke:black;stroke-width:1" /><text x="690" y="1280" font-size="10" style="fill:blue">xs:element</text><path d="M660 1140 C680 1140 660 1290 680 1290" style="fill:transparent;stroke:black" /><text x="690" y="1290" font-size="8" style="fill:black">type: xs:double</text><text x="690" y="1300" font-size="8" style="fill:black">name: distanciaHitoAnterior</text><rect x="680" y="1320" width="200" height="40" style="fill:white;stroke:black;stroke-width:1" /><text x="690" y="1330" font-size="10" style="fill:blue">xs:element</text><path d="M660 1140 C680 1140 660 1340 680 1340" style="fill:transparent;stroke:black" /><text x="690" y="1340" font-size="8" style="fill:black">type: fotografiasType</text><text x="690" y="1350" font-size="8" style="fill:black">name: fotografias</text><rect x="680" y="1370" width="200" height="40" style="fill:white;stroke:black;stroke-width:1" /><text x="690" y="1380" font-size="10" style="fill:blue">xs:element</text><path d="M660 1140 C680 1140 660 1390 680 1390" style="fill:transparent;stroke:black" /><text x="690" y="1390" font-size="8" style="fill:black">type: videosType</text><text x="690" y="1400" font-size="8" style="fill:black">name: videos</text><text x="690" y="1410" font-size="8" style="fill:black">minOccurs: 0</text><rect x="240" y="1520" width="200" height="40" style="fill:white;stroke:black;stroke-width:1" /><text x="250" y="1530" font-size="10" style="fill:blue">xs:complexType</text><path d="M220 40 C240 40 220 1540 240 1540" style="fill:transparent;stroke:black" /><text x="250" y="1540" font-size="8" style="fill:black">name: videoType</text><rect x="460" y="1520" width="200" height="40" style="fill:white;stroke:black;stroke-width:1" /><text x="470" y="1530" font-size="10" style="fill:blue">xs:simpleContent</text><path d="M440 1540 C460 1540 440 1540 460 1540" style="fill:transparent;stroke:black" /><rect x="680" y="1520" width="200" height="40" style="fill:white;stroke:black;stroke-width:1" /><text x="690" y="1530" font-size="10" style="fill:blue">xs:extension</text><path d="M660 1540 C680 1540 660 1540 680 1540" style="fill:transparent;stroke:black" /><text x="690" y="1540" font-size="8" style="fill:black">base: xs:string</text><rect x="900" y="1520" width="200" height="40" style="fill:white;stroke:black;stroke-width:1" /><text x="910" y="1530" font-size="10" style="fill:blue">xs:attribute</text><path d="M880 1540 C900 1540 880 1540 900 1540" style="fill:transparent;stroke:black" /><text x="910" y="1540" font-size="8" style="fill:black">type: xs:string</text><text x="910" y="1550" font-size="8" style="fill:black">name: src</text><text x="910" y="1560" font-size="8" style="fill:black">use: optional</text><rect x="900" y="1570" width="200" height="40" style="fill:white;stroke:black;stroke-width:1" /><text x="910" y="1580" font-size="10" style="fill:blue">xs:attribute</text><path d="M880 1540 C900 1540 880 1590 900 1590" style="fill:transparent;stroke:black" /><text x="910" y="1590" font-size="8" style="fill:black">type: xs:string</text><text x="910" y="1600" font-size="8" style="fill:black">name: titulo</text><text x="910" y="1610" font-size="8" style="fill:black">use: optional</text><rect x="240" y="1770" width="200" height="40" style="fill:white;stroke:black;stroke-width:1" /><text x="250" y="1780" font-size="10" style="fill:blue">xs:complexType</text><path d="M220 40 C240 40 220 1790 240 1790" style="fill:transparent;stroke:black" /><text x="250" y="1790" font-size="8" style="fill:black">name: videosType</text><rect x="460" y="1770" width="200" height="40" style="fill:white;stroke:black;stroke-width:1" /><text x="470" y="1780" font-size="10" style="fill:blue">xs:sequence</text><path d="M440 1790 C460 1790 440 1790 460 1790" style="fill:transparent;stroke:black" /><rect x="680" y="1770" width="200" height="40" style="fill:white;stroke:black;stroke-width:1" /><text x="690" y="1780" font-size="10" style="fill:blue">xs:element</text><path d="M660 1790 C680 1790 660 1790 680 1790" style="fill:transparent;stroke:black" /><text x="690" y="1790" font-size="8" style="fill:black">type: videoType</text><text x="690" y="1800" font-size="8" style="fill:black">name: video</text><rect x="240" y="1920" width="200" height="40" style="fill:white;stroke:black;stroke-width:1" /><text x="250" y="1930" font-size="10" style="fill:blue">xs:complexType</text><path d="M220 40 C240 40 220 1940 240 1940" style="fill:transparent;stroke:black" /><text x="250" y="1940" font-size="8" style="fill:black">name: hitosType</text><rect x="460" y="1920" width="200" height="40" style="fill:white;stroke:black;stroke-width:1" /><text x="470" y="1930" font-size="10" style="fill:blue">xs:sequence</text><path d="M440 1940 C460 1940 440 1940 460 1940" style="fill:transparent;stroke:black" /><rect x="680" y="1920" width="200" height="40" style="fill:white;stroke:black;stroke-width:1" /><text x="690" y="1930" font-size="10" style="fill:blue">xs:element</text><path d="M660 1940 C680 1940 660 1940 680 1940" style="fill:transparent;stroke:black" /><text x="690" y="1940" font-size="8" style="fill:black">type: hitoType</text><text x="690" y="1950" font-size="8" style="fill:black">name: hito</text><text x="690" y="1960" font-size="8" style="fill:black">maxOccurs: unbounded</text><text x="690" y="1970" font-size="8" style="fill:black">minOccurs: 0</text><rect x="240" y="2070" width="200" height="40" style="fill:white;stroke:black;stroke-width:1" /><text x="250" y="2080" font-size="10" style="fill:blue">xs:complexType</text><path d="M220 40 C240 40 220 2090 240 2090" style="fill:transparent;stroke:black" /><text x="250" y="2090" font-size="8" style="fill:black">name: rutaType</text><rect x="460" y="2070" width="200" height="40" style="fill:white;stroke:black;stroke-width:1" /><text x="470" y="2080" font-size="10" style="fill:blue">xs:sequence</text><path d="M440 2090 C460 2090 440 2090 460 2090" style="fill:transparent;stroke:black" /><rect x="680" y="2070" width="200" height="40" style="fill:white;stroke:black;stroke-width:1" /><text x="690" y="2080" font-size="10" style="fill:blue">xs:element</text><path d="M660 2090 C680 2090 660 2090 680 2090" style="fill:transparent;stroke:black" /><text x="690" y="2090" font-size="8" style="fill:black">type: xs:string</text><text x="690" y="2100" font-size="8" style="fill:black">name: nombre</text><rect x="680" y="2120" width="200" height="40" style="fill:white;stroke:black;stroke-width:1" /><text x="690" y="2130" font-size="10" style="fill:blue">xs:element</text><path d="M660 2090 C680 2090 660 2140 680 2140" style="fill:transparent;stroke:black" /><text x="690" y="2140" font-size="8" style="fill:black">type: xs:string</text><text x="690" y="2150" font-size="8" style="fill:black">name: tipo</text><rect x="680" y="2170" width="200" height="40" style="fill:white;stroke:black;stroke-width:1" /><text x="690" y="2180" font-size="10" style="fill:blue">xs:element</text><path d="M660 2090 C680 2090 660 2190 680 2190" style="fill:transparent;stroke:black" /><text x="690" y="2190" font-size="8" style="fill:black">type: xs:string</text><text x="690" y="2200" font-size="8" style="fill:black">name: transporte</text><rect x="680" y="2220" width="200" height="40" style="fill:white;stroke:black;stroke-width:1" /><text x="690" y="2230" font-size="10" style="fill:blue">xs:element</text><path d="M660 2090 C680 2090 660 2240 680 2240" style="fill:transparent;stroke:black" /><text x="690" y="2240" font-size="8" style="fill:black">type: xs:string</text><text x="690" y="2250" font-size="8" style="fill:black">name: fecha_inicio</text><rect x="680" y="2270" width="200" height="40" style="fill:white;stroke:black;stroke-width:1" /><text x="690" y="2280" font-size="10" style="fill:blue">xs:element</text><path d="M660 2090 C680 2090 660 2290 680 2290" style="fill:transparent;stroke:black" /><text x="690" y="2290" font-size="8" style="fill:black">type: xs:string</text><text x="690" y="2300" font-size="8" style="fill:black">name: hora_inicio</text><rect x="680" y="2320" width="200" height="40" style="fill:white;stroke:black;stroke-width:1" /><text x="690" y="2330" font-size="10" style="fill:blue">xs:element</text><path d="M660 2090 C680 2090 660 2340 680 2340" style="fill:transparent;stroke:black" /><text x="690" y="2340" font-size="8" style="fill:black">type: xs:string</text><text x="690" y="2350" font-size="8" style="fill:black">name: duracion</text><rect x="680" y="2370" width="200" height="40" style="fill:white;stroke:black;stroke-width:1" /><text x="690" y="2380" font-size="10" style="fill:blue">xs:element</text><path d="M660 2090 C680 2090 660 2390 680 2390" style="fill:transparent;stroke:black" /><text x="690" y="2390" font-size="8" style="fill:black">type: xs:string</text><text x="690" y="2400" font-size="8" style="fill:black">name: agencia</text><rect x="680" y="2420" width="200" height="40" style="fill:white;stroke:black;stroke-width:1" /><text x="690" y="2430" font-size="10" style="fill:blue">xs:element</text><path d="M660 2090 C680 2090 660 2440 680 2440" style="fill:transparent;stroke:black" /><text x="690" y="2440" font-size="8" style="fill:black">type: xs:string</text><text x="690" y="2450" font-size="8" style="fill:black">name: descripcion</text><rect x="680" y="2470" width="200" height="40" style="fill:white;stroke:black;stroke-width:1" /><text x="690" y="2480" font-size="10" style="fill:blue">xs:element</text><path d="M660 2090 C680 2090 660 2490 680 2490" style="fill:transparent;stroke:black" /><text x="690" y="2490" font-size="8" style="fill:black">type: xs:string</text><text x="690" y="2500" font-size="8" style="fill:black">name: personas_adecuadas</text><rect x="680" y="2520" width="200" height="40" style="fill:white;stroke:black;stroke-width:1" /><text x="690" y="2530" font-size="10" style="fill:blue">xs:element</text><path d="M660 2090 C680 2090 660 2540 680 2540" style="fill:transparent;stroke:black" /><text x="690" y="2540" font-size="8" style="fill:black">type: xs:string</text><text x="690" y="2550" font-size="8" style="fill:black">name: lugar_inicio</text><rect x="680" y="2570" width="200" height="40" style="fill:white;stroke:black;stroke-width:1" /><text x="690" y="2580" font-size="10" style="fill:blue">xs:element</text><path d="M660 2090 C680 2090 660 2590 680 2590" style="fill:transparent;stroke:black" /><text x="690" y="2590" font-size="8" style="fill:black">type: xs:string</text><text x="690" y="2600" font-size="8" style="fill:black">name: direccion_inicio</text><rect x="680" y="2620" width="200" height="40" style="fill:white;stroke:black;stroke-width:1" /><text x="690" y="2630" font-size="10" style="fill:blue">xs:element</text><path d="M660 2090 C680 2090 660 2640 680 2640" style="fill:transparent;stroke:black" /><text x="690" y="2640" font-size="8" style="fill:black">type: coordenadasType</text><text x="690" y="2650" font-size="8" style="fill:black">name: coordenadas</text><rect x="680" y="2670" width="200" height="40" style="fill:white;stroke:black;stroke-width:1" /><text x="690" y="2680" font-size="10" style="fill:blue">xs:element</text><path d="M660 2090 C680 2090 660 2690 680 2690" style="fill:transparent;stroke:black" /><text x="690" y="2690" font-size="8" style="fill:black">type: referenciasType</text><text x="690" y="2700" font-size="8" style="fill:black">name: referencias</text><rect x="680" y="2720" width="200" height="40" style="fill:white;stroke:black;stroke-width:1" /><text x="690" y="2730" font-size="10" style="fill:blue">xs:element</text><path d="M660 2090 C680 2090 660 2740 680 2740" style="fill:transparent;stroke:black" /><text x="690" y="2740" font-size="8" style="fill:black">type: xs:double</text><text x="690" y="2750" font-size="8" style="fill:black">name: recomendacion</text><rect x="680" y="2770" width="200" height="40" style="fill:white;stroke:black;stroke-width:1" /><text x="690" y="2780" font-size="10" style="fill:blue">xs:element</text><path d="M660 2090 C680 2090 660 2790 680 2790" style="fill:transparent;stroke:black" /><text x="690" y="2790" font-size="8" style="fill:black">type: hitosType</text><text x="690" y="2800" font-size="8" style="fill:black">name: hitos</text><rect x="240" y="2920" width="200" height="40" style="fill:white;stroke:black;stroke-width:1" /><text x="250" y="2930" font-size="10" style="fill:blue">xs:complexType</text><path d="M220 40 C240 40 220 2940 240 2940" style="fill:transparent;stroke:black" /><text x="250" y="2940" font-size="8" style="fill:black">name: rutasType</text><rect x="460" y="2920" width="200" height="40" style="fill:white;stroke:black;stroke-width:1" /><text x="470" y="2930" font-size="10" style="fill:blue">xs:sequence</text><path d="M440 2940 C460 2940 440 2940 460 2940" style="fill:transparent;stroke:black" /><rect x="680" y="2920" width="200" height="40" style="fill:white;stroke:black;stroke-width:1" /><text x="690" y="2930" font-size="10" style="fill:blue">xs:element</text><path d="M660 2940 C680 2940 660 2940 680 2940" style="fill:transparent;stroke:black" /><text x="690" y="2940" font-size="8" style="fill:black">type: rutaType</text><text x="690" y="2950" font-size="8" style="fill:black">name: ruta</text><text x="690" y="2960" font-size="8" style="fill:black">maxOccurs: unbounded</text><text x="690" y="2970" font-size="8" style="fill:black">minOccurs: 0</text></svg>